<?xml version="1.0" encoding="utf-8"?>
<!-- Generator: Adobe Illustrator 27.9.5, SVG Export Plug-In . SVG Version: 9.03 Build 54986)  -->
<svg version="1.1" id="Layer_1" xmlns="http://www.w3.org/2000/svg" xmlns:xlink="http://www.w3.org/1999/xlink" x="0px" y="0px"
	 viewBox="0 0 230 48" style="enable-background:new 0 0 230 48;" xml:space="preserve">
<style type="text/css">
	.st0{fill:#FFFFFF;}
</style>
<g>
	<polygon class="st0" points="6.4,40.6 85,40.2 118.5,39.2 6,44.2 	"/>
	<path class="st0" d="M82.7,5.3c0,0,25.7,3.8,25.2,3.7C107.5,9,82.3,9,82.3,9L82.7,5.3z"/>
	<polygon class="st0" points="83.2,11.4 116.6,14.2 83.5,16 	"/>
	<polygon class="st0" points="83.8,19.2 119.4,20.1 84.1,23.6 	"/>
	<polygon class="st0" points="83.8,26.1 111.6,26.1 84,29.6 	"/>
	<path class="st0" d="M84.8,33.1l33.5,0.2c0,0-33.9,5-33.5,5C85.2,38.3,84.8,33.1,84.8,33.1z"/>
	<path class="st0" d="M82.7,5.3c-16.3,11-30.4,2.1-32.5,0.1c-0.2-0.2-0.4-0.4-0.4-0.4l-9.7,12.7c4,3.2,0.5,7.7,0.2,7.6
		c0-2.6-1-4.2-2.3-5.2l-2.3,1c3.4,3.2,0.1,7.4-0.1,7.3c0-3.3-1.6-5-3.3-5.9L7.3,33.1l-0.8,6.3l49.8-0.7l28.9-0.3L82.7,5.3z"/>
</g>
<g>
	<path class="st0" d="M119,12.6h19.3l0.7,3.6h-8.2v20.3h-4.6V16.1H119V12.6z"/>
	<path class="st0" d="M141.2,24.6c0-3.7,1-6.7,2.9-9c1.9-2.3,4.6-3.5,8.1-3.6c3.7,0,6.5,1.2,8.3,3.6c1.8,2.4,2.7,5.3,2.7,8.7
		c0,3.7-1,6.7-2.9,9c-1.9,2.3-4.6,3.5-8.1,3.6c-3.7,0-6.5-1.2-8.3-3.6C142.1,30.9,141.2,28,141.2,24.6z M145.9,24.6
		c0,2.5,0.5,4.6,1.5,6.1c1,1.6,2.6,2.4,4.7,2.4c1.9,0,3.5-0.7,4.6-2.1c1.1-1.4,1.7-3.6,1.7-6.6c0-2.5-0.5-4.5-1.5-6.1
		c-1-1.6-2.6-2.4-4.7-2.4c-1.9,0-3.4,0.8-4.6,2.4C146.5,19.8,145.9,21.9,145.9,24.6z"/>
	<path class="st0" d="M184.9,36.5h-16.7V12.6h14.3l0.7,3.6h-10.4v6.4h6.4l0.7,3.6h-7.1v6.7h11.5L184.9,36.5z"/>
	<path class="st0" d="M188.6,31.2c0.7,0.4,1.7,0.7,2.8,1.1c1.1,0.4,2.2,0.6,3.2,0.6c1.4,0,2.5-0.2,3.2-0.7s1.1-1.1,1.1-1.9
		c0-0.8-0.5-1.5-1.4-2.1c-0.9-0.6-2-1.2-3.1-1.8c-1.7-0.9-3.3-1.9-4.8-3.1s-2.3-2.8-2.3-4.9c0-1.8,0.7-3.3,2.2-4.5
		c1.4-1.2,3.4-1.8,6.1-1.8c1.2,0,2.4,0.2,3.6,0.6c1.2,0.4,2.2,0.8,3.2,1.2l-1.5,3.7c-0.7-0.4-1.5-0.7-2.4-1
		c-0.8-0.3-1.8-0.5-2.8-0.5c-1,0-1.9,0.2-2.5,0.6c-0.7,0.4-1,1-1,1.8c0,0.9,0.4,1.6,1.3,2.2c0.9,0.6,1.9,1.2,3.2,1.9
		c1.7,0.9,3.3,1.9,4.9,3.1s2.3,2.8,2.3,4.8c0,1.9-0.8,3.5-2.3,4.7s-3.7,1.9-6.6,1.9c-1,0-2.3-0.2-3.9-0.7s-2.6-0.9-3.2-1.4
		L188.6,31.2z"/>
</g>
</svg>
