<?xml version="1.0" encoding="utf-8"?>
<!-- Generator: Adobe Illustrator 27.9.5, SVG Export Plug-In . SVG Version: 9.03 Build 54986)  -->
<svg version="1.1" id="Layer_1" xmlns="http://www.w3.org/2000/svg" xmlns:xlink="http://www.w3.org/1999/xlink" x="0px" y="0px"
	 viewBox="0 0 129 29" style="enable-background:new 0 0 129 29;" xml:space="preserve">
<style type="text/css">
	.st0{fill:#727272;}
	.st1{fill:#FF6452;}
</style>
<g>
	<polygon class="st0" points="1.4,24.3 36.2,22.4 56.1,21 1.3,25.9 	"/>
	<path class="st1" d="M34.4,7c0,0,17.8,0.8,17.6,0.8c-0.2,0-17.7,0.8-17.7,0.8L34.4,7z"/>
	<polygon class="st1" points="34.8,9.7 62.3,9.5 35,11.7 	"/>
	<polygon class="st1" points="35.2,13.2 57.3,12.4 35.4,15.1 	"/>
	<polygon class="st1" points="35.3,16.2 54,15.2 35.5,17.8 	"/>
	<path class="st1" d="M36,19.3l21.2-1c0,0-21.3,3.3-21.1,3.3C36.3,21.6,36,19.3,36,19.3z"/>
	<path class="st1" d="M34.4,7C27.4,12.3,21,8.6,20,7.8c-0.1-0.1-0.2-0.1-0.2-0.1l-4,5.8c1.8,1.3,0.4,3.4,0.3,3.4
		c-0.1-1.1-0.6-1.8-1.1-2.3l-1,0.5c1.6,1.3,0.2,3.3,0.1,3.2c-0.1-1.4-0.8-2.2-1.6-2.5L1.7,21l-0.2,2.8l22-1.4l12.8-0.8L34.4,7z"/>
</g>
<g>
	<path class="st1" d="M66,8h11.5l0.4,2.1h-4.9v12.1h-2.7V10.2H66V8z"/>
	<path class="st1" d="M79.2,15.2c0-2.2,0.6-4,1.7-5.3c1.1-1.4,2.7-2.1,4.8-2.1c2.2,0,3.9,0.7,4.9,2.1s1.6,3.2,1.6,5.2
		c0,2.2-0.6,4-1.7,5.3c-1.1,1.4-2.8,2.1-4.8,2.1c-2.2,0-3.9-0.7-4.9-2.1C79.7,19,79.2,17.2,79.2,15.2z M82,15.2
		c0,1.5,0.3,2.7,0.9,3.6s1.5,1.4,2.8,1.4c1.1,0,2.1-0.4,2.7-1.3c0.7-0.8,1-2.2,1-3.9c0-1.5-0.3-2.7-0.9-3.6S87,10,85.8,10
		c-1.1,0-2,0.5-2.7,1.4C82.4,12.3,82,13.6,82,15.2z"/>
	<path class="st1" d="M105.1,22.2h-9.9V8h8.5l0.4,2.1h-6.2V14h3.8l0.4,2.1h-4.2v4h6.8L105.1,22.2z"/>
	<path class="st1" d="M107.3,19.1c0.4,0.2,1,0.4,1.6,0.7c0.7,0.2,1.3,0.3,1.9,0.3c0.8,0,1.5-0.1,1.9-0.4c0.4-0.3,0.6-0.6,0.6-1.1
		c0-0.5-0.3-0.9-0.8-1.3c-0.6-0.4-1.2-0.7-1.9-1.1c-1-0.5-2-1.1-2.9-1.8c-0.9-0.7-1.4-1.7-1.4-2.9c0-1.1,0.4-2,1.3-2.7
		c0.8-0.7,2-1.1,3.6-1.1c0.7,0,1.4,0.1,2.1,0.3c0.7,0.2,1.3,0.5,1.9,0.7l-0.9,2.2c-0.4-0.2-0.9-0.4-1.4-0.6
		c-0.5-0.2-1.1-0.3-1.7-0.3c-0.6,0-1.1,0.1-1.5,0.4s-0.6,0.6-0.6,1.1c0,0.5,0.3,1,0.8,1.3s1.2,0.7,1.9,1.1c1,0.5,2,1.1,2.9,1.8
		c0.9,0.7,1.4,1.6,1.4,2.9c0,1.1-0.5,2.1-1.4,2.8c-0.9,0.7-2.2,1.1-3.9,1.1c-0.6,0-1.4-0.1-2.3-0.4c-0.9-0.3-1.6-0.5-1.9-0.8
		L107.3,19.1z"/>
</g>
</svg>
