<?xml version="1.0" encoding="utf-8"?>
<!-- Generator: Adobe Illustrator 27.9.5, SVG Export Plug-In . SVG Version: 9.03 Build 54986)  -->
<svg version="1.1" id="Layer_1" xmlns="http://www.w3.org/2000/svg" xmlns:xlink="http://www.w3.org/1999/xlink" x="0px" y="0px"
	 viewBox="0 0 141.6 29" style="enable-background:new 0 0 141.6 29;" xml:space="preserve">
<style type="text/css">
	.st0{fill:#727272;}
	.st1{fill:#FF6452;}
</style>
<g>
	<polygon class="st0" points="0.6,26.3 56.6,26.1 80.5,25.3 0.3,28.9 	"/>
	<path class="st1" d="M55,1.2c0,0,18.3,2.7,18,2.7c-0.3,0-18.3-0.1-18.3-0.1L55,1.2z"/>
	<polygon class="st1" points="55.3,5.5 79.2,7.5 55.6,8.8 	"/>
	<polygon class="st1" points="55.8,11.1 81.2,11.7 56,14.2 	"/>
	<polygon class="st1" points="55.8,16 75.6,16 55.9,18.5 	"/>
	<path class="st1" d="M56.5,21l23.9,0.1c0,0-24.2,3.6-23.9,3.6C56.8,24.7,56.5,21,56.5,21z"/>
	<path class="st1" d="M55,1.2C43.4,9,33.4,2.7,31.8,1.3C31.6,1.1,31.5,1,31.5,1l-6.9,9c2.8,2.3,0.4,5.5,0.2,5.4c0-1.9-0.7-3-1.6-3.7
		l-1.6,0.7c2.4,2.3,0.1,5.3-0.1,5.2c0-2.3-1.2-3.6-2.3-4.2L1.2,21l-0.5,4.5l35.5-0.5l20.6-0.2L55,1.2z"/>
</g>
<g>
	<path class="st1" d="M80.8,6.3h13.8l0.5,2.6h-5.8v14.5H86V8.9h-5.2V6.3z"/>
	<path class="st1" d="M96.7,14.9c0-2.6,0.7-4.8,2.1-6.4c1.4-1.7,3.3-2.5,5.8-2.6c2.7,0,4.7,0.9,5.9,2.6c1.3,1.7,1.9,3.8,1.9,6.2
		c0,2.6-0.7,4.8-2.1,6.4c-1.4,1.6-3.3,2.5-5.8,2.5c-2.7,0-4.6-0.9-5.9-2.6S96.7,17.4,96.7,14.9z M100.1,14.9c0,1.8,0.4,3.2,1.1,4.4
		c0.7,1.1,1.8,1.7,3.4,1.7c1.4,0,2.5-0.5,3.3-1.5c0.8-1,1.2-2.6,1.2-4.7c0-1.8-0.4-3.2-1.1-4.4s-1.8-1.7-3.4-1.7
		c-1.3,0-2.4,0.6-3.3,1.7C100.5,11.5,100.1,13,100.1,14.9z"/>
	<path class="st1" d="M127.9,23.4h-11.9v-17h10.2l0.5,2.6h-7.4v4.6h4.6l0.5,2.6h-5.1v4.8h8.2L127.9,23.4z"/>
	<path class="st1" d="M130.5,19.6c0.5,0.3,1.2,0.5,2,0.8c0.8,0.3,1.6,0.4,2.3,0.4c1,0,1.8-0.2,2.3-0.5c0.5-0.3,0.8-0.8,0.8-1.4
		c0-0.6-0.3-1.1-1-1.5c-0.7-0.4-1.4-0.9-2.2-1.3c-1.2-0.6-2.4-1.3-3.5-2.2c-1.1-0.8-1.6-2-1.6-3.5c0-1.3,0.5-2.4,1.5-3.2
		c1-0.9,2.5-1.3,4.3-1.3c0.9,0,1.7,0.1,2.6,0.4s1.6,0.6,2.3,0.9L139,9.8c-0.5-0.3-1.1-0.5-1.7-0.7c-0.6-0.2-1.3-0.3-2-0.3
		c-0.7,0-1.3,0.1-1.8,0.4c-0.5,0.3-0.7,0.7-0.7,1.3c0,0.6,0.3,1.2,1,1.6s1.4,0.9,2.3,1.3c1.2,0.6,2.4,1.3,3.5,2.2
		c1.1,0.8,1.7,2,1.6,3.4c0,1.4-0.6,2.5-1.7,3.4c-1.1,0.9-2.7,1.3-4.7,1.3c-0.7,0-1.6-0.2-2.8-0.5s-1.9-0.6-2.3-1L130.5,19.6z"/>
</g>
</svg>
