<?xml version="1.0" encoding="utf-8"?>
<!-- Generator: Adobe Illustrator 27.9.5, SVG Export Plug-In . SVG Version: 9.03 Build 54986)  -->
<svg version="1.1" id="Layer_1" xmlns="http://www.w3.org/2000/svg" xmlns:xlink="http://www.w3.org/1999/xlink" x="0px" y="0px"
	 viewBox="0 0 129 29" style="enable-background:new 0 0 129 29;" xml:space="preserve">
<style type="text/css">
	.st0{fill:#727272;}
	.st1{fill:#FF6452;}
</style>
<g>
	<polygon class="st0" points="0.6,26.3 56.6,26.1 80.5,25.3 0.3,28.9 	"/>
	<path class="st1" d="M55,1.2c0,0,18.3,2.7,18,2.7c-0.3,0-18.3-0.1-18.3-0.1L55,1.2z"/>
	<polygon class="st1" points="55.3,5.5 79.2,7.5 55.6,8.8 	"/>
	<polygon class="st1" points="55.8,11.1 81.2,11.7 56,14.2 	"/>
	<polygon class="st1" points="55.8,16 75.6,16 55.9,18.5 	"/>
	<path class="st1" d="M56.5,21l23.9,0.1c0,0-24.2,3.6-23.9,3.6C56.8,24.7,56.5,21,56.5,21z"/>
	<path class="st1" d="M55,1.2C43.4,9,33.4,2.7,31.8,1.3C31.6,1.1,31.5,1,31.5,1l-6.9,9c2.8,2.3,0.4,5.5,0.2,5.4c0-1.9-0.7-3-1.6-3.7
		l-1.6,0.7c2.4,2.3,0.1,5.3-0.1,5.2c0-2.3-1.2-3.6-2.3-4.2L1.2,21l-0.5,4.5l35.5-0.5l20.6-0.2L55,1.2z"/>
</g>
<g>
	<path class="st1" d="M83.1,9.2h9.6l0.4,1.8H89v10.1h-2.3V11h-3.6V9.2z"/>
	<path class="st1" d="M94.2,15.2c0-1.8,0.5-3.3,1.4-4.5c1-1.2,2.3-1.8,4-1.8c1.9,0,3.2,0.6,4.1,1.8c0.9,1.2,1.3,2.6,1.3,4.3
		c0,1.8-0.5,3.3-1.4,4.5c-1,1.1-2.3,1.7-4,1.8c-1.9,0-3.2-0.6-4.1-1.8C94.6,18.3,94.2,16.9,94.2,15.2z M96.5,15.2
		c0,1.2,0.3,2.3,0.8,3.1c0.5,0.8,1.3,1.2,2.3,1.2c1,0,1.7-0.4,2.3-1.1c0.6-0.7,0.9-1.8,0.9-3.3c0-1.2-0.3-2.2-0.8-3
		c-0.5-0.8-1.3-1.2-2.3-1.2c-0.9,0-1.7,0.4-2.3,1.2C96.8,12.8,96.5,13.8,96.5,15.2z"/>
	<path class="st1" d="M115.9,21.1h-8.3V9.2h7.1L115,11h-5.2v3.2h3.2l0.4,1.8h-3.5v3.3h5.7L115.9,21.1z"/>
	<path class="st1" d="M117.7,18.4c0.4,0.2,0.8,0.4,1.4,0.6s1.1,0.3,1.6,0.3c0.7,0,1.2-0.1,1.6-0.3c0.4-0.2,0.5-0.5,0.5-1
		c0-0.4-0.2-0.7-0.7-1.1c-0.5-0.3-1-0.6-1.6-0.9c-0.8-0.4-1.6-0.9-2.4-1.5s-1.1-1.4-1.1-2.4c0-0.9,0.4-1.7,1.1-2.3
		c0.7-0.6,1.7-0.9,3-0.9c0.6,0,1.2,0.1,1.8,0.3c0.6,0.2,1.1,0.4,1.6,0.6l-0.8,1.8c-0.4-0.2-0.8-0.3-1.2-0.5
		c-0.4-0.2-0.9-0.2-1.4-0.2c-0.5,0-0.9,0.1-1.3,0.3c-0.3,0.2-0.5,0.5-0.5,0.9c0,0.4,0.2,0.8,0.7,1.1s1,0.6,1.6,0.9
		c0.8,0.4,1.7,0.9,2.4,1.5c0.8,0.6,1.2,1.4,1.1,2.4c0,0.9-0.4,1.7-1.2,2.3s-1.9,0.9-3.3,0.9c-0.5,0-1.1-0.1-1.9-0.3
		c-0.8-0.2-1.3-0.4-1.6-0.7L117.7,18.4z"/>
</g>
</svg>
